<?xml version="1.0" encoding="utf-8"?>
<!-- Generator: Adobe Illustrator 16.0.0, SVG Export Plug-In . SVG Version: 6.00 Build 0)  -->
<!DOCTYPE svg PUBLIC "-//W3C//DTD SVG 1.1//EN" "http://www.w3.org/Graphics/SVG/1.1/DTD/svg11.dtd">
<svg version="1.1" id="图层_1" xmlns="http://www.w3.org/2000/svg" xmlns:xlink="http://www.w3.org/1999/xlink" x="0px" y="0px"
	 width="54.245px" height="50.587px" viewBox="0 0 54.245 50.587" enable-background="new 0 0 54.245 50.587" xml:space="preserve">
<g>
	<path fill="#ffffff" d="M27.124,6.012l4.894,13.875l0.471,1.335h1.415h14.259l-11.569,8.531l-1.081,0.796l0.328,1.302l3.506,13.922
		l-11.055-7.939l-1.132-0.812l-1.155,0.78l-11.806,7.978l4.183-13.837l0.409-1.352l-1.137-0.837l-11.57-8.531h14.259h1.415
		l0.471-1.335L27.124,6.012 M27.124,0l-6.782,19.223H0l16.467,12.141l-5.812,19.224l16.469-11.128L42.62,50.587l-4.841-19.224
		l16.466-12.141H33.903L27.124,0L27.124,0z"/>
</g>
</svg>
